<svg xmlns="http://www.w3.org/2000/svg" version="1.1" xmlns:xlink="http://www.w3.org/1999/xlink" xmlns:svgjs="http://svgjs.com/svgjs" width="512" height="512" x="0" y="0" viewBox="0 0 64 64" style="enable-background:new 0 0 512 512" xml:space="preserve" class=""><g><g xmlns="http://www.w3.org/2000/svg" fill="rgb(0,0,0)"><path d="m60 7h-56a1 1 0 0 0 -1 1v48a1 1 0 0 0 1 1h56a1 1 0 0 0 1-1v-48a1 1 0 0 0 -1-1zm-55 2h12v46h-12zm54 46h-40v-46h40z" fill="#000000" data-original="#000000" class=""></path><path d="m8 15h6a1 1 0 0 0 0-2h-6a1 1 0 0 0 0 2z" fill="#000000" data-original="#000000" class=""></path><path d="m14 19h-6a1 1 0 0 0 0 2h6a1 1 0 0 0 0-2z" fill="#000000" data-original="#000000" class=""></path><path d="m14 25h-6a1 1 0 0 0 0 2h6a1 1 0 0 0 0-2z" fill="#000000" data-original="#000000" class=""></path><path d="m26.86 32.77 6 5a1 1 0 0 0 .64.23 1 1 0 0 0 .77-.36 1 1 0 0 0 -.13-1.41l-5.08-4.23 5.08-4.23a1 1 0 0 0 -1.28-1.54l-6 5a1 1 0 0 0 0 1.54z" fill="#000000" data-original="#000000" class=""></path><path d="m43.73 37.64a1 1 0 0 0 .77.36 1 1 0 0 0 .64-.23l6-5a1 1 0 0 0 0-1.54l-6-5a1 1 0 1 0 -1.28 1.54l5.08 4.23-5.08 4.23a1 1 0 0 0 -.13 1.41z" fill="#000000" data-original="#000000" class=""></path><path d="m36.63 37.93a1 1 0 0 0 .37.07 1 1 0 0 0 .93-.63l4-10a1 1 0 0 0 -1.86-.74l-4 10a1 1 0 0 0 .56 1.3z" fill="#000000" data-original="#000000" class=""></path></g></g></svg>