<svg xmlns="http://www.w3.org/2000/svg" version="1.1" xmlns:xlink="http://www.w3.org/1999/xlink" xmlns:svgjs="http://svgjs.com/svgjs" width="512" height="512" x="0" y="0" viewBox="0 0 512 512" style="enable-background:new 0 0 512 512" xml:space="preserve" class=""><g><linearGradient xmlns="http://www.w3.org/2000/svg" id="GradientFill_1" gradientUnits="userSpaceOnUse" x1="74.986" x2="437.014" y1="437.014" y2="74.985"><stop offset="0" stop-color="#e81e25"></stop><stop offset=".108" stop-color="#ea3522"></stop><stop offset=".416" stop-color="#f1711c"></stop><stop offset=".678" stop-color="#f59d17"></stop><stop offset=".881" stop-color="#f8b814"></stop><stop offset="1" stop-color="#f9c213"></stop></linearGradient><path xmlns="http://www.w3.org/2000/svg" d="m256 119.963c-75.019 0-136.037 61.02-136.037 136.037s61.019 136.036 136.037 136.036 136.036-61.019 136.036-136.036-61.018-136.037-136.036-136.037zm-12.962-52.82v-54.181a12.962 12.962 0 1 1 25.923 0v54.181a12.962 12.962 0 1 1 -25.924 0zm268.962 188.857a12.96 12.96 0 0 1 -12.962 12.965h-54.18a12.962 12.962 0 1 1 0-25.923h54.182a12.958 12.958 0 0 1 12.96 12.958zm-243.037 188.856v54.18a12.963 12.963 0 1 1 -25.925 0v-54.18a12.962 12.962 0 1 1 25.924 0zm-201.819-175.895h-54.182a12.962 12.962 0 1 1 0-25.923h54.182a12.962 12.962 0 0 1 0 25.924zm7.842-175.651a12.957 12.957 0 1 1 18.325-18.324l38.32 38.3a12.97 12.97 0 0 1 -18.343 18.342l-38.3-38.32zm305.385 38.319a12.988 12.988 0 0 1 0-18.341l38.32-38.3a12.958 12.958 0 0 1 18.323 18.322l-38.3 38.319a12.985 12.985 0 0 1 -18.341 0zm56.643 287.059a12.958 12.958 0 1 1 -18.325 18.326l-38.318-38.3a12.969 12.969 0 1 1 18.341-18.34l38.3 38.318zm-305.383-38.318a12.99 12.99 0 0 1 0 18.342l-38.319 38.3a12.958 12.958 0 0 1 -18.327-18.322l38.305-38.32a12.984 12.984 0 0 1 18.341 0z" fill="url(#GradientFill_1)" fill-rule="evenodd" data-original="url(#GradientFill_1)"></path></g></svg>